# xmcd CD database file
#
# Track frame offsets:
#	150
#	18700
#	32369
#	49550
#	62773
#	72730
#	85188
#	101558
#	114589
#	132648
#	149185
#	159038
#	175815
#	194092
#	211927
#	228745
#	242493
#
# Disc length: 3445 seconds
#
# Revision: 2
# Processed by: cddbd v1.5.2PL0 Copyright (c) Steve Scherf et al.
# Submitted via: CDex 1.70beta2
#
DISCID=f90d7311
DTITLE=Jake Shimabukuro - Gently Weeps
DYEAR=2006
DGENRE=Jazz
TTITLE0=While My Guitar Gently Weeps
TTITLE1=Ave Maria
TTITLE2=Wish On My Star
TTITLE3=Sakura
TTITLE4=The Star-Spangled Banner
TTITLE5=Let's Dance
TTITLE6=Misty
TTITLE7=Spain
TTITLE8=Heartbeat/Dragon
TTITLE9=Blue Roses Falling
TTITLE10=Grandma's Groove
TTITLE11=Breathe
TTITLE12=Angel
TTITLE13=Lazy Jane
TTITLE14=Hula Girl
TTITLE15=Beyond The Break
TTITLE16=Wish On My Star (vocal version)
EXTD=YEAR: 2006
EXTT0=
EXTT1=
EXTT2=
EXTT3=
EXTT4=
EXTT5=
EXTT6=
EXTT7=
EXTT8=
EXTT9=
EXTT10=
EXTT11=
EXTT12=
EXTT13=
EXTT14=
EXTT15=
EXTT16=
PLAYORDER=
